<mxfile host="app.diagrams.net" agent="Mozilla/5.0 (Windows NT 10.0; Win64; x64) AppleWebKit/537.36 (KHTML, like Gecko) Chrome/133.0.0.0 Safari/537.36" version="26.0.16">
  <diagram name="Page-1" id="bzJRaJl6H7AO6uoO-Wd2">
    <mxGraphModel dx="1050" dy="1726" grid="1" gridSize="10" guides="1" tooltips="1" connect="1" arrows="1" fold="1" page="1" pageScale="1" pageWidth="827" pageHeight="1169" math="0" shadow="0">
      <root>
        <mxCell id="0" />
        <mxCell id="1" parent="0" />
        <mxCell id="DJVOmSOx2vEUpwcJcNv5-3" value="" style="edgeStyle=orthogonalEdgeStyle;rounded=0;orthogonalLoop=1;jettySize=auto;html=1;" edge="1" parent="1" source="DJVOmSOx2vEUpwcJcNv5-1" target="DJVOmSOx2vEUpwcJcNv5-2">
          <mxGeometry relative="1" as="geometry" />
        </mxCell>
        <mxCell id="DJVOmSOx2vEUpwcJcNv5-5" value="" style="edgeStyle=orthogonalEdgeStyle;rounded=0;orthogonalLoop=1;jettySize=auto;html=1;" edge="1" parent="1" source="DJVOmSOx2vEUpwcJcNv5-1" target="DJVOmSOx2vEUpwcJcNv5-4">
          <mxGeometry relative="1" as="geometry" />
        </mxCell>
        <mxCell id="DJVOmSOx2vEUpwcJcNv5-11" value="" style="edgeStyle=orthogonalEdgeStyle;rounded=0;orthogonalLoop=1;jettySize=auto;html=1;" edge="1" parent="1" source="DJVOmSOx2vEUpwcJcNv5-1" target="DJVOmSOx2vEUpwcJcNv5-10">
          <mxGeometry relative="1" as="geometry" />
        </mxCell>
        <mxCell id="DJVOmSOx2vEUpwcJcNv5-14" value="" style="edgeStyle=orthogonalEdgeStyle;rounded=0;orthogonalLoop=1;jettySize=auto;html=1;" edge="1" parent="1" source="DJVOmSOx2vEUpwcJcNv5-1" target="DJVOmSOx2vEUpwcJcNv5-13">
          <mxGeometry relative="1" as="geometry" />
        </mxCell>
        <mxCell id="DJVOmSOx2vEUpwcJcNv5-1" value="ESP32" style="rounded=1;whiteSpace=wrap;html=1;" vertex="1" parent="1">
          <mxGeometry x="350" y="260" width="120" height="60" as="geometry" />
        </mxCell>
        <mxCell id="DJVOmSOx2vEUpwcJcNv5-7" value="" style="edgeStyle=orthogonalEdgeStyle;rounded=0;orthogonalLoop=1;jettySize=auto;html=1;" edge="1" parent="1" source="DJVOmSOx2vEUpwcJcNv5-2" target="DJVOmSOx2vEUpwcJcNv5-6">
          <mxGeometry relative="1" as="geometry" />
        </mxCell>
        <mxCell id="DJVOmSOx2vEUpwcJcNv5-2" value="RFID_SCANNER" style="whiteSpace=wrap;html=1;rounded=1;" vertex="1" parent="1">
          <mxGeometry x="550" y="260" width="120" height="60" as="geometry" />
        </mxCell>
        <mxCell id="DJVOmSOx2vEUpwcJcNv5-9" value="" style="edgeStyle=orthogonalEdgeStyle;rounded=0;orthogonalLoop=1;jettySize=auto;html=1;" edge="1" parent="1" source="DJVOmSOx2vEUpwcJcNv5-4" target="DJVOmSOx2vEUpwcJcNv5-8">
          <mxGeometry relative="1" as="geometry" />
        </mxCell>
        <mxCell id="DJVOmSOx2vEUpwcJcNv5-4" value="RELAY" style="whiteSpace=wrap;html=1;rounded=1;" vertex="1" parent="1">
          <mxGeometry x="350" y="120" width="120" height="60" as="geometry" />
        </mxCell>
        <mxCell id="DJVOmSOx2vEUpwcJcNv5-6" value="RFID_CARD" style="whiteSpace=wrap;html=1;rounded=1;" vertex="1" parent="1">
          <mxGeometry x="750" y="260" width="120" height="60" as="geometry" />
        </mxCell>
        <mxCell id="DJVOmSOx2vEUpwcJcNv5-8" value="ELECTRIC_LOCK" style="whiteSpace=wrap;html=1;rounded=1;" vertex="1" parent="1">
          <mxGeometry x="350" y="-20" width="120" height="60" as="geometry" />
        </mxCell>
        <mxCell id="DJVOmSOx2vEUpwcJcNv5-10" value="WARNING_LIGHT_AND_BUZZER" style="whiteSpace=wrap;html=1;rounded=1;" vertex="1" parent="1">
          <mxGeometry x="70" y="250" width="190" height="80" as="geometry" />
        </mxCell>
        <mxCell id="DJVOmSOx2vEUpwcJcNv5-13" value="LCD_DISPLAY" style="whiteSpace=wrap;html=1;rounded=1;" vertex="1" parent="1">
          <mxGeometry x="325" y="400" width="170" height="90" as="geometry" />
        </mxCell>
        <mxCell id="DJVOmSOx2vEUpwcJcNv5-16" value="BUTTONS_TO_SELECT_CLASS(1/2)" style="rounded=1;whiteSpace=wrap;html=1;" vertex="1" parent="1">
          <mxGeometry x="550" y="400" width="220" height="100" as="geometry" />
        </mxCell>
        <mxCell id="DJVOmSOx2vEUpwcJcNv5-17" value="" style="endArrow=classic;html=1;rounded=0;entryX=0;entryY=0;entryDx=0;entryDy=0;exitX=1;exitY=1;exitDx=0;exitDy=0;" edge="1" parent="1" source="DJVOmSOx2vEUpwcJcNv5-1" target="DJVOmSOx2vEUpwcJcNv5-16">
          <mxGeometry width="50" height="50" relative="1" as="geometry">
            <mxPoint x="390" y="290" as="sourcePoint" />
            <mxPoint x="440" y="240" as="targetPoint" />
          </mxGeometry>
        </mxCell>
        <mxCell id="DJVOmSOx2vEUpwcJcNv5-18" value="" style="endArrow=classic;html=1;rounded=0;exitX=1;exitY=0;exitDx=0;exitDy=0;entryX=0;entryY=1;entryDx=0;entryDy=0;" edge="1" parent="1" source="DJVOmSOx2vEUpwcJcNv5-1" target="DJVOmSOx2vEUpwcJcNv5-19">
          <mxGeometry width="50" height="50" relative="1" as="geometry">
            <mxPoint x="400" y="280" as="sourcePoint" />
            <mxPoint x="450" y="230" as="targetPoint" />
          </mxGeometry>
        </mxCell>
        <mxCell id="DJVOmSOx2vEUpwcJcNv5-19" value="RADAR_SENSOR" style="rounded=1;whiteSpace=wrap;html=1;" vertex="1" parent="1">
          <mxGeometry x="560" y="120" width="120" height="60" as="geometry" />
        </mxCell>
      </root>
    </mxGraphModel>
  </diagram>
</mxfile>
